<svg width="130" height="130" viewBox="0 0 130 130" fill="none" xmlns="http://www.w3.org/2000/svg">
<circle cx="65" cy="64" r="58" fill="url(#paint0_linear_17_94)"/>
<mask id="path-2-inside-1_17_94" fill="white">
<path d="M130 65C130 100.899 100.899 130 65 130C29.1015 130 0 100.899 0 65C0 29.1015 29.1015 0 65 0C100.899 0 130 29.1015 130 65ZM10.9938 65C10.9938 94.8268 35.1732 119.006 65 119.006C94.8268 119.006 119.006 94.8268 119.006 65C119.006 35.1732 94.8268 10.9938 65 10.9938C35.1732 10.9938 10.9938 35.1732 10.9938 65Z"/>
</mask>
<path d="M130 65C130 100.899 100.899 130 65 130C29.1015 130 0 100.899 0 65C0 29.1015 29.1015 0 65 0C100.899 0 130 29.1015 130 65ZM10.9938 65C10.9938 94.8268 35.1732 119.006 65 119.006C94.8268 119.006 119.006 94.8268 119.006 65C119.006 35.1732 94.8268 10.9938 65 10.9938C35.1732 10.9938 10.9938 35.1732 10.9938 65Z" fill="url(#paint1_linear_17_94)" stroke="black" stroke-width="2" mask="url(#path-2-inside-1_17_94)"/>
<mask id="path-3-inside-2_17_94" fill="white">
<path fill-rule="evenodd" clip-rule="evenodd" d="M47.1534 54.2657C42.8918 56.1725 37.7291 54.2737 37.1825 49.637C36.8239 46.5954 36.9922 43.4921 37.7007 40.4585C39.0554 34.6584 42.3112 29.43 46.9739 25.5666C51.6367 21.7032 57.4519 19.4158 63.537 19.0514C69.6222 18.6871 75.6451 20.2657 80.6917 23.5478C85.7384 26.8298 89.5333 31.6361 91.5006 37.2373C93.4679 42.8384 93.5001 48.9287 91.5924 54.5838C89.6847 60.2389 85.9412 65.1501 80.9301 68.5722C80.2356 69.0465 79.5221 69.4885 78.7918 69.8977C78.1462 70.5256 77.4242 71.0873 76.6872 71.5706C75.1586 72.5729 73.8973 73.9328 73.0127 75.5324C72.128 77.132 71.6465 78.9231 71.61 80.7507C71.5498 83.7638 70.6197 87.117 67.9263 88.4691L65.108 89.8838C60.8581 92.0173 55.5341 90.2811 54.7634 85.5886C54.4832 83.8821 54.358 82.1478 54.3928 80.4068C54.4852 75.7808 55.7038 71.247 57.9432 67.198C60.1825 63.1491 63.375 59.707 67.2443 57.1698C68.4638 56.3701 69.7391 55.6679 71.058 55.0674L71.2066 54.9655C73.1591 53.6322 74.6176 51.7187 75.3609 49.5154C76.1042 47.3121 76.0916 44.9392 75.3251 42.7569C74.5586 40.5746 73.0801 38.702 71.1138 37.4232C69.1475 36.1445 66.8009 35.5294 64.43 35.6714C62.0591 35.8133 59.7934 36.7045 57.9767 38.2098C56.16 39.715 54.8915 41.7521 54.3637 44.0119C53.5029 47.6974 52.2263 51.9958 48.7718 53.5415L47.1534 54.2657ZM65.3829 110.349C70.6071 110.349 74.8422 106.114 74.8422 100.889C74.8422 95.6653 70.6071 91.4302 65.3829 91.4302C60.1587 91.4302 55.9237 95.6653 55.9237 100.889C55.9237 106.114 60.1587 110.349 65.3829 110.349Z"/>
</mask>
<path fill-rule="evenodd" clip-rule="evenodd" d="M47.1534 54.2657C42.8918 56.1725 37.7291 54.2737 37.1825 49.637C36.8239 46.5954 36.9922 43.4921 37.7007 40.4585C39.0554 34.6584 42.3112 29.43 46.9739 25.5666C51.6367 21.7032 57.4519 19.4158 63.537 19.0514C69.6222 18.6871 75.6451 20.2657 80.6917 23.5478C85.7384 26.8298 89.5333 31.6361 91.5006 37.2373C93.4679 42.8384 93.5001 48.9287 91.5924 54.5838C89.6847 60.2389 85.9412 65.1501 80.9301 68.5722C80.2356 69.0465 79.5221 69.4885 78.7918 69.8977C78.1462 70.5256 77.4242 71.0873 76.6872 71.5706C75.1586 72.5729 73.8973 73.9328 73.0127 75.5324C72.128 77.132 71.6465 78.9231 71.61 80.7507C71.5498 83.7638 70.6197 87.117 67.9263 88.4691L65.108 89.8838C60.8581 92.0173 55.5341 90.2811 54.7634 85.5886C54.4832 83.8821 54.358 82.1478 54.3928 80.4068C54.4852 75.7808 55.7038 71.247 57.9432 67.198C60.1825 63.1491 63.375 59.707 67.2443 57.1698C68.4638 56.3701 69.7391 55.6679 71.058 55.0674L71.2066 54.9655C73.1591 53.6322 74.6176 51.7187 75.3609 49.5154C76.1042 47.3121 76.0916 44.9392 75.3251 42.7569C74.5586 40.5746 73.0801 38.702 71.1138 37.4232C69.1475 36.1445 66.8009 35.5294 64.43 35.6714C62.0591 35.8133 59.7934 36.7045 57.9767 38.2098C56.16 39.715 54.8915 41.7521 54.3637 44.0119C53.5029 47.6974 52.2263 51.9958 48.7718 53.5415L47.1534 54.2657ZM65.3829 110.349C70.6071 110.349 74.8422 106.114 74.8422 100.889C74.8422 95.6653 70.6071 91.4302 65.3829 91.4302C60.1587 91.4302 55.9237 95.6653 55.9237 100.889C55.9237 106.114 60.1587 110.349 65.3829 110.349Z" fill="url(#paint2_linear_17_94)"/>
<path d="M37.1825 49.637L36.1894 49.7541L37.1825 49.637ZM47.1534 54.2657L46.745 53.3529L46.745 53.3529L47.1534 54.2657ZM37.7007 40.4585L38.6745 40.6859L38.6745 40.6859L37.7007 40.4585ZM46.9739 25.5666L47.6119 26.3366L47.6119 26.3366L46.9739 25.5666ZM63.537 19.0514L63.5968 20.0497L63.537 19.0514ZM80.6917 23.5478L81.2369 22.7095L81.2369 22.7095L80.6917 23.5478ZM91.5006 37.2373L92.4441 36.9059L92.4441 36.9059L91.5006 37.2373ZM91.5924 54.5838L90.6449 54.2641L90.6449 54.2641L91.5924 54.5838ZM80.9301 68.5722L80.3661 67.7464L80.3661 67.7464L80.9301 68.5722ZM78.7918 69.8977L78.303 69.0253L78.1886 69.0894L78.0946 69.1808L78.7918 69.8977ZM76.6872 71.5706L77.2355 72.4068L77.2355 72.4068L76.6872 71.5706ZM73.0127 75.5324L73.8877 76.0163L73.8877 76.0163L73.0127 75.5324ZM71.61 80.7507L70.6102 80.7307L70.6102 80.7307L71.61 80.7507ZM67.9263 88.4691L68.3749 89.3628L68.3749 89.3628L67.9263 88.4691ZM65.108 89.8838L65.5566 90.7775L65.5566 90.7775L65.108 89.8838ZM54.7634 85.5886L55.7502 85.4265L55.7502 85.4265L54.7634 85.5886ZM54.3928 80.4068L55.3926 80.4268L55.3926 80.4268L54.3928 80.4068ZM67.2443 57.1698L67.7926 58.0061L67.7926 58.0061L67.2443 57.1698ZM71.058 55.0674L71.4723 55.9775L71.5514 55.9415L71.6231 55.8924L71.058 55.0674ZM71.2066 54.9655L70.6427 54.1397L70.6415 54.1406L71.2066 54.9655ZM75.3609 49.5154L74.4134 49.1957L74.4134 49.1957L75.3609 49.5154ZM75.3251 42.7569L74.3816 43.0883L74.3816 43.0883L75.3251 42.7569ZM71.1138 37.4232L70.5686 38.2615L70.5686 38.2615L71.1138 37.4232ZM64.43 35.6714L64.3702 34.6731L64.3702 34.6731L64.43 35.6714ZM54.3637 44.0119L53.3899 43.7845L53.3899 43.7845L54.3637 44.0119ZM48.7718 53.5415L49.1802 54.4543L49.1802 54.4543L48.7718 53.5415ZM36.1894 49.7541C36.5088 52.4636 38.1947 54.3814 40.3788 55.3234C42.5401 56.2556 45.1881 56.2406 47.5619 55.1785L46.745 53.3529C44.8571 54.1976 42.793 54.1866 41.1709 53.487C39.5716 52.7972 38.4028 51.4472 38.1756 49.52L36.1894 49.7541ZM36.727 40.2311C35.992 43.3778 35.8173 46.5977 36.1894 49.7541L38.1756 49.52C37.8306 46.5931 37.9924 43.6064 38.6745 40.6859L36.727 40.2311ZM46.3359 24.7966C41.508 28.7968 38.1322 34.2145 36.727 40.2311L38.6745 40.6859C39.9787 35.1024 43.1144 30.0632 47.6119 26.3366L46.3359 24.7966ZM63.4772 18.0532C57.1815 18.4302 51.1635 20.7967 46.3359 24.7966L47.6119 26.3366C52.1099 22.6098 57.7222 20.4014 63.5968 20.0497L63.4772 18.0532ZM81.2369 22.7095C76.0085 19.3092 69.773 17.6763 63.4772 18.0532L63.5968 20.0497C69.4713 19.6979 75.2817 21.2223 80.1465 24.3861L81.2369 22.7095ZM92.4441 36.9059C90.4026 31.0933 86.4659 26.11 81.2369 22.7095L80.1465 24.3861C85.0109 27.5496 88.6641 32.179 90.5571 37.5686L92.4441 36.9059ZM92.54 54.9034C94.5186 49.0381 94.4857 42.7187 92.4441 36.9059L90.5571 37.5686C92.45 42.9581 92.4817 48.8192 90.6449 54.2641L92.54 54.9034ZM81.494 69.398C86.6814 65.8556 90.5616 60.7681 92.54 54.9034L90.6449 54.2641C88.8079 59.7096 85.2011 64.4447 80.3661 67.7464L81.494 69.398ZM79.2807 70.77C80.0365 70.3465 80.7751 69.889 81.494 69.398L80.3661 67.7464C79.6961 68.2039 79.0076 68.6305 78.303 69.0253L79.2807 70.77ZM77.2355 72.4068C78.0177 71.8939 78.7912 71.2932 79.4891 70.6145L78.0946 69.1808C77.5011 69.758 76.8306 70.2807 76.1388 70.7343L77.2355 72.4068ZM73.8877 76.0163C74.6937 74.559 75.8428 73.32 77.2355 72.4068L76.1388 70.7343C74.4743 71.8258 73.1009 73.3066 72.1376 75.0484L73.8877 76.0163ZM72.6098 80.7707C72.6431 79.1056 73.0817 77.4737 73.8877 76.0163L72.1376 75.0484C71.1742 76.7902 70.65 78.7406 70.6102 80.7307L72.6098 80.7707ZM68.3749 89.3628C71.6 87.7437 72.5482 83.8583 72.6098 80.7707L70.6102 80.7307C70.5515 83.6694 69.6394 86.4902 67.4776 87.5753L68.3749 89.3628ZM65.5566 90.7775L68.3749 89.3628L67.4776 87.5753L64.6594 88.9901L65.5566 90.7775ZM53.7767 85.7506C54.2253 88.4822 56.0166 90.3611 58.2718 91.2292C60.5049 92.0888 63.1914 91.9649 65.5566 90.7775L64.6594 88.9901C62.7747 89.9362 60.6742 90.0109 58.9902 89.3627C57.3283 88.7229 56.0723 87.3875 55.7502 85.4265L53.7767 85.7506ZM53.393 80.3868C53.357 82.189 53.4866 83.9842 53.7767 85.7506L55.7502 85.4265C55.4798 83.78 55.3591 82.1066 55.3926 80.4268L53.393 80.3868ZM57.0681 66.7141C54.7501 70.9053 53.4887 75.5983 53.393 80.3868L55.3926 80.4268C55.4818 75.9632 56.6576 71.5887 58.8182 67.682L57.0681 66.7141ZM66.6959 56.3336C62.6907 58.9599 59.3861 62.5229 57.0681 66.7141L58.8182 67.682C60.9789 63.7753 64.0593 60.4541 67.7926 58.0061L66.6959 56.3336ZM70.6436 54.1573C69.2784 54.7789 67.9583 55.5058 66.6959 56.3336L67.7926 58.0061C68.9694 57.2344 70.1998 56.5569 71.4723 55.9775L70.6436 54.1573ZM70.6415 54.1406L70.4928 54.2424L71.6231 55.8924L71.7718 55.7905L70.6415 54.1406ZM74.4134 49.1957C73.7408 51.1895 72.4189 52.9268 70.6427 54.1397L71.7706 55.7914C73.8993 54.3377 75.4944 52.248 76.3084 49.835L74.4134 49.1957ZM74.3816 43.0883C75.0738 45.0589 75.0857 47.2026 74.4134 49.1957L76.3084 49.835C77.1226 47.4215 77.1095 44.8195 76.2686 42.4255L74.3816 43.0883ZM70.5686 38.2615C72.3526 39.4217 73.6894 41.1174 74.3816 43.0883L76.2686 42.4255C75.4279 40.0317 73.8075 37.9822 71.659 36.5849L70.5686 38.2615ZM64.4898 36.6696C66.65 36.5402 68.7841 37.101 70.5686 38.2615L71.659 36.5849C69.5109 35.1879 66.9518 34.5186 64.3702 34.6731L64.4898 36.6696ZM58.6147 38.9798C60.2666 37.6111 62.3294 36.7989 64.4898 36.6696L64.3702 34.6731C61.7888 34.8277 59.3202 35.798 57.3387 37.4398L58.6147 38.9798ZM55.3375 44.2394C55.8148 42.196 56.9632 40.3482 58.6147 38.9798L57.3387 37.4398C55.3569 39.0818 53.9683 41.3082 53.3899 43.7845L55.3375 44.2394ZM49.1802 54.4543C51.1962 53.5522 52.5193 51.8695 53.436 50.024C54.3499 48.1841 54.9051 46.0907 55.3375 44.2394L53.3899 43.7845C52.9615 45.6186 52.4481 47.5171 51.6448 49.1343C50.8443 50.7458 49.8018 51.9851 48.3633 52.6288L49.1802 54.4543ZM47.5619 55.1785L49.1802 54.4543L48.3633 52.6288L46.745 53.3529L47.5619 55.1785ZM73.8422 100.889C73.8422 105.561 70.0548 109.349 65.3829 109.349V111.349C71.1594 111.349 75.8422 106.666 75.8422 100.889H73.8422ZM65.3829 92.4302C70.0548 92.4302 73.8422 96.2176 73.8422 100.889H75.8422C75.8422 95.113 71.1594 90.4302 65.3829 90.4302V92.4302ZM56.9237 100.889C56.9237 96.2176 60.711 92.4302 65.3829 92.4302V90.4302C59.6064 90.4302 54.9237 95.113 54.9237 100.889H56.9237ZM65.3829 109.349C60.711 109.349 56.9237 105.561 56.9237 100.889H54.9237C54.9237 106.666 59.6064 111.349 65.3829 111.349V109.349Z" fill="black" mask="url(#path-3-inside-2_17_94)"/>
<defs>
<linearGradient id="paint0_linear_17_94" x1="23.9167" y1="104.738" x2="100.214" y2="18.7738" gradientUnits="userSpaceOnUse">
<stop stop-color="#00253A"/>
<stop offset="0.599108" stop-color="#006471"/>
<stop offset="1" stop-color="#00E4E2"/>
</linearGradient>
<linearGradient id="paint1_linear_17_94" x1="65" y1="0" x2="65" y2="130" gradientUnits="userSpaceOnUse">
<stop stop-color="#E8D493"/>
<stop offset="1" stop-color="#936C35"/>
</linearGradient>
<linearGradient id="paint2_linear_17_94" x1="60.8011" y1="16.8072" x2="60.8011" y2="111.4" gradientUnits="userSpaceOnUse">
<stop stop-color="#E8D493"/>
<stop offset="1" stop-color="#936C35"/>
</linearGradient>
</defs>
</svg>
